<mxfile host="app.diagrams.net" modified="2024-06-01T13:03:28.560Z" agent="Mozilla/5.0 (Windows NT 10.0; Win64; x64) AppleWebKit/537.36 (KHTML, like Gecko) Chrome/125.0.0.0 Safari/537.36 Edg/125.0.0.0" version="24.4.7" etag="dJKvTMIwIa2FOY7epp92" type="github">
  <diagram name="第 1 页" id="CgFE3xAfPV0Tgq9dVA0W">
    <mxGraphModel>
      <root>
        <mxCell id="0" />
        <mxCell id="1" parent="0" />
      </root>
    </mxGraphModel>
  </diagram>
</mxfile>
